<svg width="32" height="32" viewBox="0 0 32 32" fill="none" xmlns="http://www.w3.org/2000/svg">
  <circle cx="16" cy="16" r="14" fill="#8B7355" opacity="0.1"/>
  <path d="M16 8C11.589 8 8 11.589 8 16C8 20.411 11.589 24 16 24C20.411 24 24 20.411 24 16C24 11.589 20.411 8 16 8ZM16 22C12.686 22 10 19.314 10 16C10 12.686 12.686 10 16 10C19.314 10 22 12.686 22 16C22 19.314 19.314 22 16 22Z" fill="#8B7355"/>
  <path d="M16 12C13.794 12 12 13.794 12 16C12 18.206 13.794 20 16 20C18.206 20 20 18.206 20 16C20 13.794 18.206 12 16 12ZM16 18C14.895 18 14 17.105 14 16C14 14.895 14.895 14 16 14C17.105 14 18 14.895 18 16C18 17.105 17.105 18 16 18Z" fill="#8B7355"/>
  <circle cx="16" cy="16" r="2" fill="#8B7355"/>
</svg> 